<svg version="1.1" viewBox="0 100 700 500"
  xmlns="http://www.w3.org/2000/svg">
  <path d="M 115.119 376.238 L 235.379 376.238 C 246.399 376.238 255.434 385.265 255.434 396.293 L 255.434 493.047 C 255.434 504.086 246.399 513.094 235.379 513.094 L 229.308 513.094 L 229.308 409.154 L 214.054 409.154 L 214.054 524.934 L 136.445 524.934 L 136.445 409.154 L 121.191 409.154 L 121.191 513.094 L 115.121 513.094 C 104.101 513.094 95.066 504.086 95.066 493.047 L 95.066 396.293 C 95.066 385.266 104.101 376.238 115.121 376.238 L 115.119 376.238 Z" fillRule="evenodd" fill="currentColor"></path>
  <path d="M 175.259 271.085 C 200.888 271.085 221.685 291.882 221.685 317.503 C 221.685 343.132 200.888 363.929 175.259 363.929 C 149.63 363.929 128.841 343.132 128.841 317.503 C 128.841 291.878 149.63 271.085 175.259 271.085 Z" fillRule="evenodd" fill="currentColor"></path>
  <g>
    <path d="M 350.009 227.776 C 375.634 227.776 396.427 248.557 396.427 274.194 C 396.427 299.823 375.63 320.62 350.009 320.62 C 324.38 320.62 303.583 299.823 303.583 274.194 C 303.583 248.557 324.38 227.776 350.009 227.776 Z" fillRule="evenodd" fill="rgb(22, 163, 74)"></path>
    <path d="M 289.864 332.926 L 410.124 332.926 C 421.151 332.926 430.171 341.953 430.171 352.973 L 430.171 449.727 C 430.171 460.774 421.147 469.782 410.124 469.782 L 404.053 469.782 L 404.053 365.842 L 388.799 365.842 L 388.799 481.622 L 311.19 481.622 L 311.19 365.842 L 295.936 365.842 L 295.936 469.782 L 289.866 469.782 C 278.839 469.782 269.819 460.774 269.819 449.727 L 269.819 352.973 C 269.819 341.953 278.843 332.926 289.866 332.926 L 289.864 332.926 Z" fillRule="evenodd" fill="rgb(22, 163, 74)"></path>
  </g>
  <path d="M 524.764 175.066 C 550.393 175.066 571.19 195.863 571.19 221.492 C 571.19 247.121 550.393 267.918 524.764 267.918 C 499.135 267.918 478.346 247.121 478.346 221.492 C 478.346 195.863 499.135 175.066 524.764 175.066 Z" fillRule="evenodd" fill="currentColor"></path>
  <path d="M 464.619 280.226 L 584.879 280.226 C 595.899 280.226 604.934 289.253 604.934 300.281 L 604.934 397.035 C 604.934 408.074 595.899 417.082 584.879 417.082 L 578.808 417.082 L 578.808 313.142 L 563.554 313.142 L 563.554 428.922 L 485.945 428.922 L 485.945 313.142 L 470.691 313.142 L 470.691 417.082 L 464.621 417.082 C 453.601 417.082 444.566 408.074 444.566 397.035 L 444.566 300.281 C 444.566 289.254 453.601 280.226 464.621 280.226 L 464.619 280.226 Z" fillRule="evenodd" fill="currentColor"></path>
</svg>
