<svg version="1.1" viewBox="0 100 700 500"
  xmlns="http://www.w3.org/2000/svg">
  <g transform="matrix(1, 0, 0, 1, -2.224121, 58.867126)">
    <g>
      <path d="M 581.52 207.22 C 579.758 207.22 578.067 206.529 576.813 205.294 C 525.946 155.399 472.243 108.482 415.983 64.764 C 414.569 63.674 413.651 62.065 413.424 60.291 C 413.198 58.522 413.686 56.733 414.784 55.323 C 415.878 53.912 417.487 52.998 419.26 52.776 C 421.03 52.557 422.819 53.049 424.225 54.147 C 480.901 98.178 534.995 145.44 586.225 195.697 C 588.174 197.611 588.772 200.509 587.741 203.037 C 586.706 205.564 584.249 207.216 581.522 207.216 L 581.52 207.22 Z"></path>
      <path d="M 287.04 534.71 C 285.372 534.71 283.763 534.089 282.528 532.96 L 124.688 389.66 C 121.95 387.164 121.751 382.922 124.239 380.176 C 126.731 377.43 130.973 377.223 133.723 379.707 L 291.563 523.017 C 293.618 524.884 294.313 527.822 293.31 530.411 C 292.31 533.001 289.817 534.712 287.04 534.712 L 287.04 534.71 Z"></path>
      <path d="M 294.05 528.93 C 290.425 528.926 287.456 526.051 287.335 522.43 C 286.101 485.141 288.366 442.957 314.538 412.81 C 337.64 386.208 372.323 376.888 405.87 367.876 C 409.401 366.923 412.913 365.974 416.405 365.02 C 466.022 351.333 501.542 334.004 528.195 310.489 C 561.347 281.235 579.644 240.048 575.953 202.999 C 575.586 199.308 578.281 196.015 581.973 195.648 C 585.664 195.277 588.957 197.972 589.328 201.663 C 593.508 243.565 573.976 288.016 537.09 320.564 C 508.856 345.477 471.645 363.72 419.99 377.97 C 416.479 378.942 412.932 379.891 409.365 380.848 C 377.771 389.341 345.103 398.118 324.697 421.614 C 301.568 448.251 299.627 487.294 300.775 521.974 L 300.771 521.974 C 300.83 523.756 300.178 525.49 298.959 526.791 C 297.744 528.092 296.056 528.853 294.275 528.912 L 294.05 528.93 Z"></path>
      <path d="M 122.59 382.1 C 119.274 382.096 116.457 379.67 115.957 376.393 C 108.774 329.19 129.707 276.253 170.59 238.223 C 202.231 208.797 244.559 187.004 303.8 169.633 L 310.238 167.762 C 332.98 161.188 356.496 154.391 373.015 138.785 C 394.398 118.59 400.925 88.066 406.706 53.176 C 407.311 49.516 410.772 47.039 414.432 47.645 C 418.096 48.254 420.573 51.711 419.968 55.375 C 415.194 84.172 408.658 123.609 382.244 148.559 C 363.353 166.399 338.249 173.657 313.972 180.676 L 307.581 182.532 C 250.421 199.294 209.8 220.118 179.741 248.071 C 142.065 283.11 122.718 331.505 129.241 374.371 L 129.245 374.367 C 129.799 378.035 127.28 381.461 123.612 382.023 C 123.272 382.074 122.932 382.097 122.589 382.097 L 122.59 382.1 Z"></path>
    </g>
    <g>
      <path d="M 378.21 361.55 C 378.065 361.55 377.917 361.546 377.769 361.534 L 377.772 361.53 C 355.924 360.745 334.256 357.273 313.26 351.19 C 291.362 344.796 271.936 331.874 257.576 314.147 C 242.732 295.459 237.826 270.756 244.404 247.815 C 245.561 244.292 249.35 242.374 252.873 243.522 C 256.397 244.671 258.326 248.456 257.186 251.983 C 251.947 270.717 256.072 290.831 268.26 305.995 C 281.026 321.464 298.139 332.753 317.385 338.397 C 337.315 344.186 357.897 347.452 378.639 348.12 C 382.256 348.358 385.033 351.421 384.92 355.042 C 384.803 358.667 381.834 361.542 378.209 361.546 L 378.21 361.55 Z" fill="rgb(22, 163, 74)"></path>
      <path d="M 467.44 318.33 C 467.327 318.33 467.217 318.326 467.104 318.322 L 467.1 318.322 C 463.393 318.139 460.538 314.986 460.721 311.279 C 462.182 281.744 444.76 251.291 416.334 233.701 C 391.619 218.404 358.58 212.248 323.314 216.369 L 323.314 216.373 C 321.541 216.584 319.756 216.084 318.353 214.979 C 316.947 213.873 316.045 212.256 315.838 210.479 C 315.627 208.705 316.139 206.92 317.248 205.522 C 318.357 204.123 319.982 203.225 321.756 203.022 C 360.014 198.557 396.123 205.389 423.406 222.272 C 455.929 242.397 475.847 277.592 474.148 311.94 C 473.972 315.518 471.019 318.33 467.441 318.33 L 467.44 318.33 Z" fill="rgb(22, 163, 74)"></path>
      <path d="M 383.65 189.5 C 380.552 189.504 377.853 187.387 377.119 184.375 C 376.381 181.367 377.798 178.242 380.549 176.816 C 401.412 165.789 416.92 146.777 423.529 124.125 C 424.161 121.887 425.907 120.137 428.146 119.497 C 430.38 118.86 432.786 119.422 434.509 120.985 L 461.009 145.051 L 461.009 145.055 C 462.337 146.25 463.134 147.926 463.224 149.711 C 463.318 151.496 462.693 153.242 461.489 154.566 C 460.286 155.891 458.607 156.68 456.821 156.762 C 455.036 156.844 453.29 156.211 451.974 155 L 433.009 137.777 C 424.017 159.652 407.646 177.687 386.739 188.742 C 385.786 189.242 384.723 189.5 383.649 189.5 L 383.65 189.5 Z" fill="rgb(22, 163, 74)"></path>
      <path d="M 510.74 300.86 C 508.138 300.856 505.771 299.352 504.666 296.997 C 503.556 294.645 503.908 291.86 505.564 289.856 C 522.775 268.93 533.005 243.145 534.818 216.114 C 534.912 214.329 535.724 212.657 537.064 211.477 C 538.408 210.294 540.174 209.708 541.955 209.841 C 543.732 209.958 545.392 210.77 546.572 212.11 C 547.748 213.45 548.346 215.2 548.232 216.977 C 546.228 246.832 534.931 275.313 515.923 298.418 C 514.65 299.965 512.748 300.86 510.74 300.86 Z" fill="rgb(22, 163, 74)"></path>
      <path d="M 542.29 222.15 C 540.696 222.154 539.153 221.584 537.938 220.548 L 512.86 199.224 C 510.04 196.818 509.704 192.58 512.106 189.756 C 514.509 186.931 518.747 186.588 521.575 188.986 L 546.645 210.31 C 548.79 212.138 549.571 215.107 548.598 217.751 C 547.626 220.396 545.106 222.154 542.29 222.15 Z" fill="rgb(22, 163, 74)"></path>
      <path d="M 153.13 374.3 C 151.15 374.3 149.267 373.421 147.989 371.906 C 146.712 370.39 146.169 368.386 146.505 366.433 C 151.255 338.937 160.919 312.523 175.032 288.453 C 176.911 285.25 181.028 284.176 184.231 286.051 C 187.43 287.926 188.508 292.043 186.633 295.246 C 173.332 317.93 164.223 342.82 159.742 368.73 C 159.184 371.945 156.395 374.296 153.129 374.3 L 153.13 374.3 Z" fill="rgb(22, 163, 74)"></path>
      <path d="M 179.09 398.86 C 177.309 398.86 175.602 398.157 174.344 396.895 L 150.035 372.645 C 147.418 370.024 147.414 365.774 150.035 363.149 C 152.652 360.524 156.902 360.516 159.531 363.13 L 183.836 387.38 C 185.762 389.301 186.34 392.196 185.301 394.708 C 184.262 397.219 181.809 398.86 179.09 398.86 Z" fill="rgb(22, 163, 74)"></path>
      <path d="M 264.68 464.97 C 264.414 464.97 264.153 464.954 263.891 464.923 C 260.203 464.493 257.567 461.154 257.996 457.466 C 260.739 434.743 270.066 413.314 284.836 395.825 C 287.239 392.997 291.481 392.649 294.309 395.056 C 297.137 397.458 297.481 401.7 295.079 404.528 C 282.02 419.993 273.77 438.938 271.349 459.032 C 270.95 462.415 268.087 464.966 264.681 464.97 L 264.68 464.97 Z" fill="rgb(22, 163, 74)"></path>
      <path d="M 262.3 465.78 C 260.323 465.78 258.448 464.913 257.171 463.405 C 249.187 453.983 239.573 446.077 228.788 440.053 C 227.23 439.186 226.077 437.733 225.589 436.018 C 225.101 434.299 225.315 432.459 226.187 430.901 C 227.058 429.342 228.515 428.194 230.233 427.709 C 231.952 427.229 233.792 427.447 235.347 428.322 C 247.535 435.127 258.398 444.064 267.421 454.709 C 269.112 456.706 269.495 459.502 268.393 461.881 C 267.296 464.256 264.917 465.776 262.3 465.78 Z" fill="rgb(22, 163, 74)"></path>
    </g>
  </g>
</svg>
