<?xml version="1.0" encoding="utf-8"?>
<!-- Generator: Adobe Illustrator 26.0.3, SVG Export Plug-In . SVG Version: 6.00 Build 0)  -->
<svg version="1.0" id="katman_1" xmlns="http://www.w3.org/2000/svg" xmlns:xlink="http://www.w3.org/1999/xlink" x="0px" y="0px"
	 viewBox="0 0 600 450" style="enable-background:new 0 0 600 450;" xml:space="preserve">
<style type="text/css">
	.st0{fill:#D61119;}
	.st1{fill:#0F1618;}
	.st2{fill:#FFFFFF;}
</style>
<path class="st0" d="M81.1,183.1c0,0-4.9,0-4.9,4.9v74.7c0,0,0,4.9,4.9,4.9h127.4c0,0,4.9,0,4.9-4.9V188c0,0,0-4.9-4.9-4.9H81.1z"/>
<path class="st1" d="M523.1,262.7V188c0,0,0-4.9-4.9-4.9H205.1v84.5h313.1C518.2,267.6,523.1,267.6,523.1,262.7"/>
<path class="st2" d="M169.7,259.7c17.8,0,25.3-9.8,28.5-23.2l-16.7-3.8c-2,8.2-4.9,12.6-11.7,12.6c-8.8,0-13.1-7.9-13.1-20.1
	c0-12.4,4.1-19.6,12.9-19.6c6.8,0,9.3,5,11,11.4l16.7-5c-2.7-11.8-9.8-21.1-27.6-21.1c-16.6,0-30.6,10.1-30.6,34.4
	S152.5,259.7,169.7,259.7 M102.7,223.7v-17h7.6c8.2,0,10.4,3.5,10.4,8.5c0,5-2.2,8.5-10.4,8.5H102.7L102.7,223.7z M85.2,258.5h17.5
	v-21.2h7c12.8,0,28.3-2.9,28.3-22.6s-14.3-22.6-28.3-22.6H85.2V258.5L85.2,258.5z M497.9,214.2c0,5.6-3.2,7.6-10.4,7.6h-7.6v-15.1
	h7.6C494.8,206.7,497.9,208.7,497.9,214.2 M515.2,213.8c0-15.9-10.2-21.6-27-21.6h-25.5v66.3h17.3v-23h3.6l12.6,23h18.7l-13.6-24.7
	C509.9,230.8,515.2,224.2,515.2,213.8"/>
<path class="st2" d="M429,207h30.5v-14.9h-48.2v66.3h48.1v-14.4H429v-12.3h20.7v-14H429V207z"/>
<path class="st2" d="M391.2,258.5H408v-66.3h-23.9l-10.3,45h-0.2l-11.5-45h-23.4v66.3h15.7v-41.9h0.2c1.4,8.7,2.2,11.6,3.7,17
	l6.7,24.9h15.5l6.9-24.9c1.4-5.1,2.5-9.3,3.5-16.1h0.2C391.2,217.4,391.2,258.5,391.2,258.5z"/>
<path class="st2" d="M311.6,233.4h-12.5l6.3-18.4h0.2L311.6,233.4z M337.4,258.5l-23-66.2h-16.6l-23,66.2h16.1l4.2-12.4h20.6l4,12.4
	H337.4L337.4,258.5z"/>
<path class="st2" d="M259.3,258.5h13.9v-34.1h-26.3v13.1h9.5c-1.7,4.9-6.3,8.1-11.5,8c-4.7,0-13.7-2.1-13.7-20.6
	c0-18.6,10.1-19.1,12.9-19.1c5.1,0,8.9,2.9,11.5,11.4l16.2-4.6c-4.6-17.4-15.2-21.6-27.5-21.6c-19.4,0-30.7,13.4-30.7,34.1
	c0,20,8.4,34.7,29.2,34.7c9.8,0,15.5-6.8,16.4-10h0.2C259.3,249.7,259.3,258.5,259.3,258.5z M512.3,193.8c0,0.2-0.1,0.3-0.4,0.3
	h-0.4v-0.7h0.5C512.2,193.5,512.3,193.6,512.3,193.8 M513,195.6l-0.7-1.1c0.3-0.1,0.5-0.4,0.5-0.7c0-0.5-0.3-0.8-0.9-0.8h-1v2.6h0.5
	v-1h0.4l0,0.1l0.5,0.9H513L513,195.6z M513.8,194.3c0,1-0.8,1.8-1.8,1.8c-1,0-1.8-0.8-1.8-1.8c0,0,0,0,0,0c0-1,0.8-1.8,1.8-1.8
	C512.9,192.5,513.8,193.3,513.8,194.3 M514.3,194.3c0-1.3-1-2.3-2.3-2.3c-1.3,0-2.3,1-2.3,2.3c0,1.3,1,2.3,2.3,2.3
	C513.2,196.6,514.3,195.6,514.3,194.3"/>
</svg>
