<?xml version="1.0" encoding="utf-8"?>
<!-- Generator: Adobe Illustrator 19.2.1, SVG Export Plug-In . SVG Version: 6.00 Build 0)  -->
<svg version="1.1" id="layer" xmlns="http://www.w3.org/2000/svg" xmlns:xlink="http://www.w3.org/1999/xlink" x="0px" y="0px"
	 viewBox="0 0 652 652" style="enable-background:new 0 0 652 652;" xml:space="preserve">
<style type="text/css">
	.st0{fill:#1C1B19;}
	.st1{fill:#E30D24;}
	.st2{fill:#FFFFFF;}
</style>
<g id="Page-1">
	<g id="logo">
		<g id="Group">
			<path id="Shape" class="st0" d="M126.7,298.3l1.9,0.4c4.5,0.9,5.1,3.6,5.1,6V336c0,2.6-0.6,5.1-5.1,6l-1.9,0.4v1h22.2v-1L147,342
				c-4.5-0.9-5.1-3.4-5.1-6v-31.2c0-2.5,0.6-5.1,5.1-6l1.9-0.4v-1h-22.2V298.3"/>
			<path id="Shape_1_" class="st0" d="M579.4,297.3v15.5h0.9l2.3-5.7c2.3-5.6,4.6-8.7,10.6-8.7h2.5V336c0,2.4-0.6,5.3-5.1,6
				l-1.9,0.3v1h22.2v-1L609,342c-4.5-0.7-5.1-3.6-5.1-6v-37.6h2.5c6,0,8.3,3.1,10.6,8.7l2.3,5.7h0.9v-15.5H579.4"/>
			<path id="Shape_2_" class="st0" d="M559.5,298.3l1.8,0.2c3.4,0.5,6.5,2.2,6.6,10.9l0.2,21l-17.8-21.1c-5.3-6.3-7.5-9-9.1-11.8
				l-0.1-0.2l-16.3,0v1l0.3,0.1c3.4,0.6,5.5,2,9,5.8l0.7,0.7v24.1c0,10.3-3.2,12-7.2,13l-1.3,0.3v1h18.3v-1l-1.3-0.3
				c-3.5-0.9-7.1-1.9-7.2-13l-0.2-22.9l32.3,38l0.1,0.1h1v-34.8c0-8.8,3.3-10.4,6.6-10.9l1.8-0.2v-1h-18.1L559.5,298.3"/>
			<path id="Shape_3_" class="st0" d="M372.4,335.1c-3.1,5.2-6.8,7.2-13.8,7.2h-1.9c-3.9,0-5.6-1.9-5.6-6.2v-15.9l2.9,0.1
				c7,0.1,8.9,0.4,11.1,7.2l0.8,2.5h1v-20.6h-1l-0.8,2.5c-2.1,6.7-4.2,7.1-11.1,7.2l-2.9,0.1v-20.7h4.9c8.3,0,12,1.7,14.7,6.8
				l3.1,5.7h0.9v-13.5h-39v1l1.9,0.4c4.2,0.9,5.1,2.9,5.1,5.8V336c0,2.4-0.6,5.3-5.1,6l-1.9,0.3v1h40.7v-13.5h-0.9L372.4,335.1"/>
			<path id="Shape_4_" class="st0" d="M518.1,335.1c-3.1,5.2-6.8,7.2-13.8,7.2h-1.9c-3.9,0-5.6-1.9-5.6-6.2v-15.9l2.9,0.1
				c7,0.1,8.9,0.4,11.1,7.2l0.8,2.5h1v-20.6h-1l-0.8,2.5c-2.1,6.7-4.2,7.1-11.1,7.2l-2.9,0.1v-20.7h4.9c8.2,0,12,1.7,14.7,6.8
				l3.1,5.7h0.9v-13.5h-39v1l1.9,0.4c4.2,0.9,5.1,2.9,5.1,5.8V336c0,2.4-0.6,5.3-5.1,6l-1.9,0.3v1h40.7v-13.5h-0.9L518.1,335.1"/>
			<path id="Shape_5_" class="st0" d="M217.5,335.9v-37.5h5.8c11.6,0,18.6,8.2,18.6,21.9c0,13.9-6.6,21.9-18,21.9h-1.4
				C218.4,342.3,217.5,339.7,217.5,335.9 M225.3,297.3h-41.1v1l1.8,0.2c4.1,0.6,6.6,2.4,6.6,9.6l0.2,22.3L175,309.4
				c-5.2-6.2-7.5-9-9.1-11.8l-0.1-0.2h-16.3v1l0.3,0.1c3.4,0.6,5.5,2,9,5.8l0.7,0.7v24.1c0,10.3-3.2,12-7.2,13l-1.3,0.3v1h18.3v-1
				l-1.3-0.3c-3.5-0.9-7.1-1.9-7.2-13l-0.2-22.9l32.4,38.2h1v-37.2c0-5.8,2.6-8.7,7.7-8.7c5.1,0,7.7,2.9,7.7,8.7V336
				c0,2.7-0.6,5.3-5.1,6l-1.9,0.3v1h23c8,0,14.6-2.5,19.3-7.1c4.2-4.2,6.5-9.9,6.5-16.1c0-6.2-2.3-11.8-6.5-15.9
				C239.9,299.7,233.3,297.3,225.3,297.3"/>
			<path id="Shape_6_" class="st0" d="M447.1,335.9v-37.5h5.8c11.6,0,18.6,8.2,18.6,21.9c0,13.9-6.6,21.9-18,21.9h-1.4
				C447.9,342.3,447.1,339.7,447.1,335.9 M454.9,297.3h-41.1v1l1.8,0.2c4.1,0.6,6.5,2.4,6.6,9.6l0.2,22.3l-17.8-21.1
				c-5.3-6.3-7.5-9-9.1-11.8l-0.1-0.2h-16.3v1l0.3,0.1c3.4,0.6,5.5,2,9,5.8l0.7,0.7v24.1c0,10.3-3.2,12-7.2,13l-1.3,0.3v1h18.3v-1
				l-1.3-0.3c-3.5-0.9-7.1-1.9-7.2-13l-0.2-22.9l32.3,38l0.1,0.1h1v-37.2c0-5.8,2.6-8.7,7.7-8.7c5.1,0,7.7,2.9,7.7,8.7V336
				c0,2.7-0.6,5.3-5.1,6l-1.9,0.3v1h23c8,0,14.6-2.5,19.3-7.1c4.2-4.2,6.5-9.9,6.5-16.1c0-6.2-2.3-11.8-6.5-15.9
				C469.5,299.7,462.8,297.3,454.9,297.3"/>
			<path id="Shape_7_" class="st0" d="M317.1,297.3h-19.9v1l1.9,0.4c4.5,0.9,5.1,3.4,5.1,6V336c0,2.6-0.6,5.1-5.1,6l-1.9,0.4v1h23.1
				v-1l-1.5-0.3c-5.2-1.1-6.2-2.2-6.2-6.7v-37h2c7.1,0,11.3,4.8,11.3,12.8c0,8-4.2,12.8-11.3,12.8h-0.5v1.1h3.1
				c10.4,0,17.6-5.7,17.6-13.9C334.7,303,327.5,297.3,317.1,297.3"/>
			<path id="Shape_8_" class="st0" d="M288.6,335.1c-3.1,5.2-6.8,7.2-13.9,7.2h-1.9c-3.9,0-5.6-1.9-5.6-6.2v-15.9l2.9,0.1
				c7,0.1,8.9,0.4,11.1,7.2l0.8,2.5h1v-20.6h-1l-0.8,2.5c-2.1,6.7-4.2,7.1-11.1,7.2l-2.9,0.1v-20.7h4.9c8.2,0,12,1.7,14.8,6.8
				l3.1,5.7h0.9v-13.5h-39v1l1.9,0.4c4.2,0.9,5.1,2.9,5.1,5.8V336c0,2.4-0.6,5.3-5.1,6l-1.9,0.3v1h40.7v-13.5h-0.9L288.6,335.1"/>
		</g>
	</g>
</g>
<path class="st1" d="M58.6,282.3c-21.2,0-38.4,17.2-38.4,38.4s17.2,38.4,38.4,38.4s38.4-17.2,38.4-38.4S79.9,282.3,58.6,282.3"/>
<path class="st2" d="M80.9,335.7c-0.8-0.4-0.5-0.3-4.2-2.5c0,0-2.8,0.5-6.4,1.3c0.1,0,0.1,0,0.2,0.1c0.1,0,0.1,0.1,0.2,0.1
	c0.1,0,0.1,0.1,0.1,0.1c0.1,0.1,0.2,0.2,0.2,0.3c0,0.1,0,0.1,0,0.2c0,0,0,0.1,0,0.1s0,0.1,0,0.1c0,0,0,0.1,0,0.1c0,0,0,0.1,0,0.1
	c0,0.1,0,0.1,0,0.1l-0.1,0c0,0,0-0.1,0-0.1c0,0,0-0.1,0-0.1c0,0,0-0.1,0-0.1c0,0,0-0.1-0.1-0.1c0,0,0-0.1-0.1-0.1c0,0,0-0.1-0.1-0.1
	c0,0-0.1-0.1-0.1-0.1c0,0-0.1-0.1-0.1-0.1c0,0-0.1-0.1-0.1-0.1c0,0-0.1-0.1-0.1-0.1c0,0-0.1,0-0.1-0.1c0,0-0.1,0-0.1-0.1
	c0,0-0.1,0-0.1,0l0,0l0,0l-0.8,0.2c0,0,0,0,0.1,0c0.1,0,0.1,0,0.2,0.1c0.1,0,0.1,0.1,0.2,0.1c0.1,0,0.1,0.1,0.1,0.1
	c0,0.1,0.1,0.1,0.1,0.2c0,0.1,0.1,0.1,0.1,0.2c0,0.1,0,0.1,0,0.2c0,0,0,0.1,0,0.1s0,0.1,0,0.1c0,0,0,0.1,0,0.1c0,0,0,0.1,0,0.1
	c0,0,0,0.1,0,0.1h-0.1c0,0,0,0,0-0.1c0,0,0-0.1,0-0.1c0,0,0-0.1,0-0.1c0,0,0-0.1-0.1-0.1s0-0.1-0.1-0.1c0,0,0-0.1-0.1-0.1
	c0,0-0.1-0.1-0.1-0.1c0,0-0.1-0.1-0.1-0.1c0,0-0.1-0.1-0.1-0.1c0,0-0.1-0.1-0.1-0.1c0,0-0.1,0-0.1-0.1c0,0-0.1,0-0.1-0.1
	c0,0-0.1,0-0.1,0l-0.1,0l0,0l-2.1-1.8l0.1-0.5l-0.2-1.2l0.2-0.5v-1.8l-2.2,2l-0.1-0.1l6.6-7.8l-0.1-0.1l-1.9-0.3l0-0.1h3.5
	c0.4,0.5,1.1,0.6,1.7,0.4l0-0.1l-0.7-1.1c0,0,0.2-0.1,0.3-0.2c0.3-0.2,0.5-0.1,0.8,0.3c0.3,0.4,0.4,0.9,0.1,1.1l0,0.1
	c0.5-0.1,0.9-0.3,1.1-0.7c0.4-0.5,0.3-1.3-0.2-1.9c-0.4-0.5-1.1-1.2-1.1-1.2c0.1-0.9-0.4-1.7-1.2-2c-1.9-0.8-3.3-1.3-3.3-1.3l-4.5,0
	l0-0.1l4.5-0.5l1.3-1.2l5.1-2c0.3-0.1,0.6-0.4,0.7-0.7c0.7-1.8,2.7-7.2,2.7-7.2l6.3-8.4l-0.1-0.1l-4.1,2.9l-0.1-0.1l1.7-3.5l-0.1,0
	l-2.7,3.9l-0.1,0l0.3-3.9l-0.1,0l-1,3.9h-0.1l-1.6-3.9l-0.1,0l1.2,4.7l-0.1,2.2l-0.1,0l-0.3-1.9l-2.8-4.7l-0.1,0l2.2,5l0.2,3.7
	l-0.1,0l-0.5-3.4l-3.6-4.6l-0.1,0.1l3.1,4.8l0.2,5l-0.1,0l-0.6-4.8l-4-4.2l-0.1,0.1l3.4,4.5l0.4,5.8l-0.1,0l-0.9-5.5l-4.2-3.6
	l-0.1,0.1l3.6,3.9l0.6,6.1l-0.1,0l-1.2-5.7l-4.2-2.9l-0.1,0.1l3.6,3.2l1,6l-0.1,0l-1.6-5.6l-4-2.2l-0.1,0.1l3.5,2.5l1.1,5.8l-0.1,0
	l-1.8-5.3l-3.8-1.4l0,0.1l3.2,1.8l1.3,5.3l-0.1,0l-2-4.8l-3.6-0.6l0,0.1l3,1.1l1.5,4.6l-0.1,0l-2.3-3.9l-3-0.2l0,0.1l2.4,0.8
	l1.8,3.7l-0.1,0.1l-2.5-3l-2.7,0.2l0,0.1l2.2,0.4l2,2.9l-0.1,0.1l-2.6-2.1l-2.9,0.7l0,0.1l2.4,0l2.2,2.1l0,0.1l-2.7-1.2l-3,0.5v0.1
	l2.7,0.1l2.3,1.5l0,0.1l-2.5-0.9l-4.1,0.8l0,0.1l3.8-0.1l2.3,1.1l0,0.1l-2.5-0.6l-6.2,1l0,0.1l4.8,0.4l0,0.1l-3.9,0.7l0,0.1l2.6,0.2
	l0,0.1l-3,0.8h0h0h0l1.3,1.7l-0.1,0.1l-3-2.5l-7.6-10.6l-6.9-3.5l-5.5-4.9l-1.7-4.6l-0.1,0l0.6,5.1l2.7,4.3l-0.1,0.1l-3.9-3.2
	l-1.8-3.6l-0.1,0l0.7,4.2l1.9,3.4l-0.1,0.1l-3.1-2.5l-1.6-2.4l-0.1,0l0.7,3.2l2,2.9l-0.1,0.1l-3.1-1.8l-1.4-1.7l-0.1,0l0.9,2.5
	l1.4,1.8l0,0.1l-1.4-0.3l0,0.1l3,2.8l0,0.1l-2.6-0.2l0,0.1l3.7,2.3l0,0.1l-1.7,0.1l0,0.1l4.3,1.7v0.1l-1.7,0.6l0,0.1l10.4,0.8l0,0.1
	l-5.8,0l-0.1,1.2l7.3-0.1v0.1l-5.2,0.6l-0.2,1.4l7.1-1l0,0.1l-5.5,1.3l-0.1,1.6l7.3-2l0,0.1l-6,2.3l0,1.5l7.4-3.1l0,0.1l-5.9,3.2
	l0,0l0.2,1.5l7.2-3.7l0,0.1l-5.9,3.7l0.3,1.3l7-3.8l0,0.1l-5.4,3.6l0.5,1.4l5.7-3.4l0.1,0.1l-3.8,2.8l0.7,1.3l2.8-1.7l0,0.1l-1,0.9
	l0.5,1c0.1-0.1,0.4-0.1,0.6-0.2s0.6-0.2,0.9-0.3c0.2-0.1,0.3-0.1,0.5-0.2c0.1,0,0.2-0.1,0.2-0.1c0.1,0,0.2-0.1,0.2-0.1
	c0.1-0.1,0.3-0.2,0.4-0.3l0.1-0.1l0.1-0.1c0.1-0.1,0.1-0.1,0.2-0.2c0.1-0.1,0.1-0.1,0.2-0.2c0.1-0.1,0.1-0.1,0.1-0.2
	s0.1-0.1,0.1-0.2c0-0.1,0.1-0.1,0.1-0.2c0.1-0.1,0.1-0.2,0.1-0.3c0-0.1,0.1-0.2,0.1-0.3c0-0.1,0-0.1,0-0.2c0,0,0-0.1,0-0.1l0.1,0
	c0,0,0,0,0,0.1c0,0,0,0.1,0,0.2c0,0.1,0,0.2-0.1,0.3c0,0.1-0.1,0.2-0.1,0.4c0,0.1-0.1,0.1-0.1,0.2c0,0.1-0.1,0.1-0.1,0.2
	c0,0.1-0.1,0.1-0.1,0.2s-0.1,0.1-0.1,0.2c-0.1,0.1-0.1,0.1-0.2,0.2l-0.1,0.1l-0.1,0.1c-0.1,0.1-0.3,0.3-0.4,0.4
	c-0.1,0.1-0.2,0.1-0.2,0.2c-0.1,0-0.2,0.1-0.3,0.1c-0.2,0.1-0.3,0.2-0.5,0.2c-0.3,0.1-0.9,0.4-0.9,0.4l-8,3l-5.2,8.2l0.3,0.2
	l5.9-6.8l0.1,0.1l-3.5,5.1l2.1-0.3L49,332l0.1,0l-2.3,4.6l2-0.1h0l2.2-4.5l0.1,0l-1.5,4.4l2-0.1l1.3-4.2l0.1,0l-0.7,4.1l2.1-0.4
	l0.4-3.8l0.1,0v3.6l1.5-0.9l-0.2-2.7l0.1,0l0.5,2.5l0.6,0.3l0.4,1.1l0.6,0.2l1.2,1l0.5,0.4l0,0l0,0.1l-0.8-0.4
	c-5,1.4-8.9,2.6-8.9,2.6l0,0c0.8,0.4,1.9,1.1,3,1.7c0.5,0.3,1,0.6,1.5,0.8c0.2,0.1,0.5,0.3,0.7,0.4c0.1,0,0.1,0.1,0.2,0.1
	c0,0,0.1,0,0.1,0l0,0l0,0l0,0l0,0c0.1,0.1,0.2,0.1,0.3,0.2c0.2,0.2,0.3,0.3,0.3,0.5c0,0.2,0.1,0.3,0,0.5c0,0.1,0,0.2-0.1,0.3
	c0,0.1,0,0.1,0,0.1l-0.1,0c0,0,0,0,0-0.1c0-0.1,0-0.2,0-0.3c0-0.1,0-0.3-0.1-0.4c-0.1-0.2-0.2-0.3-0.3-0.4c-0.1-0.1-0.2-0.1-0.3-0.2
	l0,0h0h0l0,0l0,0c0,0-0.1,0-0.1,0l-0.2-0.1c-0.2-0.1-0.5-0.2-0.7-0.3c-0.5-0.2-1-0.5-1.6-0.7l-1-0.4c-0.7,0.2-1.9,0.6-2.3,0.7
	c-1,0.3-0.9,1.6,0,2c1.6,0.6,2.3,0.9,4.2,1.5c1.2,0.4,2,0.3,3.1-0.2c0.8-0.3,2.1-1,3.7-1.7c2.6-1.4,6.3-4.4,6.3-4.4l0.1,0.1
	l-2.9,2.7c2-0.9,3.8-1.7,5.1-2.2l0,0c1.5-0.8,2.9-1.6,4.3-2.6l0.1,0.1l-2,1.8c2.2-0.4,5.9-0.8,7.9-0.8
	C82.2,338.8,82.2,336.5,80.9,335.7z M74.2,320.1c0.4,0.3,0.7,0.7,1.1,1l0,0c0,0,0.1,0.1,0.1,0.1c0,0,0,0.1,0,0.1c0,0,0,0.1,0,0.1
	c0,0.1,0,0.1,0.1,0.2c0,0.1,0,0.1,0,0.2c0,0.1,0,0.1,0,0.2c0,0,0,0.1,0,0.1c0,0,0,0.1,0,0.1c0,0.1,0,0.1-0.1,0.2c0,0,0,0.1,0,0.1
	l0,0.1l-0.1,0l0-0.1c0,0,0,0,0-0.1c0,0,0-0.1,0-0.1c0,0,0-0.1,0-0.1c0,0,0-0.1,0-0.1c0-0.1,0-0.1,0-0.1c0,0,0-0.1-0.1-0.1
	c0,0,0-0.1-0.1-0.1c0,0,0,0,0-0.1c0,0,0,0,0-0.1c0,0-0.1-0.1-0.1-0.1c-0.4-0.3-0.8-0.6-1.2-0.9L74.2,320.1z M72.1,319.1
	c0-0.1,0-0.1,0.1-0.2c0,0,0,0,0,0c0,0,0,0,0,0c0,0,0,0,0.1-0.1c0,0,0.1,0,0.1-0.1l0,0c0.1,0,0.1,0,0.1,0l0,0l0.1,0.1l0,0
	c0,0,0,0-0.1,0.1c0,0,0,0,0,0c0,0,0,0,0,0l0,0c0,0,0,0,0,0c0,0,0,0,0,0c0,0,0,0,0,0c0,0,0,0,0,0c0,0,0,0,0,0v0c0,0,0,0,0,0
	c0,0,0,0,0,0.1v0v0l0,0c0,0,0,0,0,0c0,0,0,0,0,0l0,0c0,0,0,0,0,0l0,0c0,0,0,0,0,0c0,0,0.1,0,0.1,0l0,0c0,0,0.1,0,0.1,0l0,0l0,0l0,0
	c0,0,0,0,0,0c0,0,0,0,0,0c0,0,0,0,0,0c0,0,0,0,0,0l0,0c0,0,0,0,0,0c0,0,0,0,0,0c0,0,0,0,0-0.1c0,0,0,0,0,0c0,0,0-0.1,0-0.1v0l0.1,0
	l0,0c0,0,0,0.1,0.1,0.1l0,0c0,0,0,0.1,0,0.1c0,0,0,0.1,0,0.1c0,0,0,0,0,0.1l0,0c0,0.1,0,0.1-0.1,0.2c0,0.1-0.1,0.1-0.2,0.2l0,0l0,0
	l0,0l-0.1,0c0,0-0.1,0-0.1,0h0c-0.1,0-0.2,0-0.2-0.1l0,0c0,0-0.1,0-0.1-0.1c0,0,0,0-0.1,0c0,0,0,0-0.1-0.1c0,0-0.1-0.1-0.1-0.1
	l0-0.1l0,0l0,0v0c0,0,0-0.1,0-0.1C72,319.2,72.1,319.2,72.1,319.1L72.1,319.1z M71.9,321.7c0-0.1,0.1-0.1,0.1-0.2c0,0,0-0.1,0.1-0.1
	l0,0l0,0l0,0h0l0,0c0.1,0,0.1-0.1,0.2-0.1c0.1,0,0.2,0,0.3,0c0,0,0.1,0,0.1,0c0,0,0.1,0,0.1,0c0,0,0,0,0.1,0c0,0,0,0,0.1,0
	c0,0,0,0,0,0.1l0,0c0,0,0,0,0,0c0,0,0,0.1,0,0.1l-0.1,0.1c0,0,0,0-0.1,0c0,0,0,0,0,0c0,0,0,0,0,0c0,0-0.1,0-0.1,0c0,0,0,0-0.1,0
	c0,0,0,0,0,0c0,0,0,0-0.1,0c0,0,0,0-0.1,0c0,0-0.1,0-0.1,0c0,0-0.1,0-0.1,0.1l0,0l0,0l0,0c0,0,0,0,0,0c0,0,0,0.1-0.1,0.1
	c0,0,0,0,0,0.1c0,0,0,0,0,0.1c0,0,0,0.1,0,0.1c0,0,0,0.1,0,0.1c0,0,0,0,0,0c0,0,0,0,0,0c0,0,0,0.1,0,0.1l-0.1,0c0,0,0,0-0.1-0.1
	c0,0,0,0,0,0s0,0,0,0s0,0,0-0.1c0,0,0,0,0-0.1c0,0,0-0.1,0-0.1c0,0,0-0.1,0-0.1C71.9,321.8,71.9,321.7,71.9,321.7L71.9,321.7z
	 M37.4,299.6l0.1-0.1l3.1,4.1l5.1,2.4l-0.1,0.1l-5.5-2.1L37.4,299.6z M32.4,303l0.1-0.1l3.3,3.1l6.7,2.2l0,0.1l-7.1-1.8L32.4,303z
	 M30.7,304.8L30.7,304.8l3.7,2.8l7.9,2.2l0,0.1l-8.2-1.8L30.7,304.8z M31.3,309.1l0-0.1l11,2.3l0,0.2l-8.1-1.2L31.3,309.1z
	 M43,312.9l-5.8-0.5l-2.9-0.9l0-0.1l8.7,1.4L43,312.9z M43.3,307l-5.9-1.9l-2.4-3.3l0.1-0.1l2.8,3l5.4,2.2L43.3,307z M44,309.1
	L44,309.1l-0.1-1.3l0.1,0l0.1,0.8l2.6-1.3l0.1,0.1L44,309.1z M44.4,311l0-1.3l0.1,0l0.1,0.8l3.4-1.8l0.1,0.1L44.4,311L44.4,311z
	 M45.5,312.8L45.5,312.8l-0.1-1.3l0.1,0l0.1,0.8l3.6-2l0.1,0.1L45.5,312.8z M46.9,314.3l-0.1,0l0-1.3l0.1,0l0.1,0.8l3.5-1.8l0.1,0.1
	L46.9,314.3z M48.7,315.6L48.7,315.6l-0.1-1.3l0.1,0l0.1,0.8l3.1-1.6l0.1,0.1L48.7,315.6z M50.6,316.8L50.6,316.8l-0.1-1.3l0.1,0
	l0.1,0.7l2.6-1.3l0.1,0.1L50.6,316.8z M52.5,318l-0.1,0l0-1.2h0.1l0.1,0.7l1.8-0.9l0.1,0.1L52.5,318z M54.1,319.2L54.1,319.2l0-1.1
	h0.1l0.1,0.5l1.3-0.6l0.1,0.1L54.1,319.2z M55.3,320.4L55.3,320.4l0-1l0.1,0l0.1,0.5l1.6-0.7l0.1,0.1L55.3,320.4z M56.2,323.3
	L56.2,323.3l0-0.8l0.1,0l0,0.3l0.8-0.3l0.1,0.1L56.2,323.3z M55.9,321.8L55.9,321.8l0-0.8l0.1,0l0,0.3l1.1-0.5l0.1,0.1L55.9,321.8z
	 M51.6,330.4L51.6,330.4l0.1-0.4l-0.3-0.1l0-0.1h0.9l0,0.1L51.6,330.4z M54.1,330.4L54.1,330.4l0.1-0.4l-0.3-0.1l0-0.1h0.9l0,0.1
	L54.1,330.4z M54.7,344.8l-0.9-0.3c-0.3-0.1-0.6-0.2-0.9-0.3l-1.8-0.6l0,0c-0.1,0-0.2-0.2-0.2-0.3c0,0,0,0,0,0
	c0-0.1,0.1-0.1,0.2-0.2l1.8-0.5l0,0.1l-1.2,0.6l1.2,0.6c0.3,0.1,0.6,0.3,0.9,0.4L54.7,344.8L54.7,344.8z M64.2,329.2L64.2,329.2
	l0.1-0.5l-0.5-0.1l0-0.1l1.1-0.2l0,0.1L64.2,329.2z M62.3,326.5L62.3,326.5l1.6-0.6l0.1,0.1l-1,1.4l-0.1,0l0.1-0.8L62.3,326.5z
	 M61.6,329.9L61.6,329.9l0.9-0.2l0,0.1l-0.6,0.7l-0.1,0l0.1-0.4L61.6,329.9z M61.6,323.9L61.6,323.9l1.6-0.6l0,0.1l-1,1.4l-0.1,0
	l0.2-0.8L61.6,323.9z M65.9,327.2L65.9,327.2l0.1-0.5l-0.5-0.1v-0.1l1.1-0.2l0,0.1L65.9,327.2z M67.2,323l0.2-0.4l-0.5-0.2l0-0.1
	l1.1-0.1l0,0.1L67.2,323L67.2,323z M68.7,318.1h0.9l0,0.1l-0.7,0.5l-0.1-0.1l0.2-0.3L68.7,318.1L68.7,318.1z M68.2,324.6l-0.6,0.6
	l-0.1,0l0.1-0.4l-0.4-0.1v-0.1L68.2,324.6L68.2,324.6z M68.2,319.8l-1.1,0.8l-0.1-0.1l0.3-0.5l-0.6-0.2l0-0.1L68.2,319.8L68.2,319.8
	z M66.2,317.6h1.1l0,0.1l-0.9,0.7l-0.1-0.1l0.2-0.4L66.2,317.6L66.2,317.6z M66,323.8l-0.9,1.1l-0.1,0l0.2-0.6l-0.6-0.1v-0.1
	L66,323.8L66,323.8z M65.9,321.2L65.9,321.2l-1,1.3l-0.1,0l0.2-0.7l-0.7-0.2v-0.1L65.9,321.2z M65.3,319.2l-1.1,0.8l-0.1-0.1
	l0.3-0.5l-0.6-0.2l0-0.1L65.3,319.2L65.3,319.2z M63.3,317.6h0.9l0,0.1l-0.7,0.5l-0.1-0.1l0.2-0.3L63.3,317.6L63.3,317.6z
	 M62.9,320.8L62.9,320.8l-1.2,1.3l-0.1,0l0.3-0.7l-0.8-0.2v-0.1L62.9,320.8z M60.1,328L60.1,328l1.3-0.4l0,0.1l-0.9,1.1l-0.1,0
	l0.2-0.6L60.1,328z M60.7,318.8h1.4l0,0.1l-1.1,0.8l-0.1-0.1l0.3-0.5L60.7,318.8L60.7,318.8z M60.7,325.5l-0.8,1.1l-0.1,0l0.1-0.6
	l-0.6-0.1l0-0.1L60.7,325.5L60.7,325.5z M60.3,323.3l-0.9,1l-0.1,0l0.2-0.6l-0.6-0.1v-0.1L60.3,323.3L60.3,323.3z M58.7,321.3
	l1.1-0.2l0,0.1l-0.7,0.8l-0.1,0l0.2-0.5L58.7,321.3L58.7,321.3z M55.9,328.9L55.9,328.9l0.1-0.4l-0.3-0.1l0-0.1h0.9l0,0.1
	L55.9,328.9z M56.6,330.9L56.6,330.9l0.1-0.4l-0.3-0.2l0-0.1h0.9l0,0.1L56.6,330.9z M57.6,327.6L57.6,327.6l0.2-0.5l-0.5-0.2l0-0.1
	l1.1,0l0,0.1L57.6,327.6z M58.3,329.5L58.3,329.5l0.2-0.5l-0.4-0.2l0-0.1h1.1l0,0.1L58.3,329.5z M59.3,331.1L59.3,331.1l0.1-0.4
	l-0.3-0.2l0-0.1H60l0,0.1L59.3,331.1z M55.6,340.2c-0.1,0-0.2,0.1-0.3,0.1l-0.2,0.1c-0.1,0-0.2,0-0.2,0.1l-0.3,0.1l0-0.1l0,0
	c0,0,0.1,0,0.3-0.1l0.3-0.1l0.1,0c0.1,0,0.2-0.1,0.3-0.1c0.3-0.1,0.6-0.2,0.9-0.3l0.1,0l0.2-0.1c0.3-0.1,0.6-0.2,1-0.3
	c0.4-0.1,0.9-0.3,1.2-0.4l0.2-0.1c0.1,0,0.3-0.1,0.4-0.1l0.5-0.1c0.2-0.1,0.4-0.1,0.6-0.2l0.1,0c0.2,0,0.3-0.1,0.3-0.1l0,0l0,0.1
	l0,0l-0.3,0.1c-0.1,0-0.1,0-0.2,0.1c-0.2,0.1-0.3,0.1-0.5,0.2l-0.5,0.2l-0.1,0c-0.1,0-0.3,0.1-0.4,0.1c-0.4,0.1-0.8,0.3-1.2,0.4
	l-0.3,0.1c-0.3,0.1-0.6,0.2-0.9,0.3c-0.1,0-0.3,0.1-0.4,0.1C56,340.1,55.8,340.1,55.6,340.2z M65,338.4c-0.1,0-0.2,0.1-0.3,0.1
	c-0.2,0.1-0.4,0.2-0.7,0.3l-0.2,0.1c-0.2,0.1-0.3,0.1-0.5,0.2c-0.2,0.1-0.5,0.2-0.8,0.3l-1.6,0.6c-0.4,0.1-0.7,0.3-1.1,0.4
	c-0.2,0.1-0.4,0.1-0.6,0.2c-0.2,0.1-0.4,0.1-0.5,0.2l-0.2,0.1c-0.2,0.1-0.3,0.1-0.5,0.2l-0.2,0.1c-0.3,0.1-0.5,0.2-0.7,0.3
	c-0.1,0-0.2,0.1-0.3,0.1l-0.4,0.1l0,0l-0.1-0.1l0,0c0,0,0.1-0.1,0.4-0.2c0.1,0,0.2-0.1,0.3-0.1c0.2-0.1,0.4-0.2,0.7-0.3l0.1-0.1
	c0.2-0.1,0.3-0.1,0.5-0.2c0.1,0,0.2-0.1,0.2-0.1c0.2-0.1,0.3-0.1,0.5-0.2l0.6-0.2c0.3-0.1,0.7-0.3,1.1-0.4c0.6-0.2,1.1-0.4,1.7-0.6
	l0.4-0.1l0.4-0.1c0.2-0.1,0.5-0.1,0.7-0.2c0.3-0.1,0.5-0.2,0.7-0.2c0.1,0,0.2-0.1,0.3-0.1l0.4-0.1l0,0.1L65,338.4z M61.2,336.7
	L61.2,336.7L61.2,336.7c0-0.1,0.1-0.1,0.1-0.1c0,0,0.1,0,0.1,0c0,0,0.1,0,0.1,0c0,0,0,0,0,0l0,0c0,0,0.1,0,0.1,0
	c0.1,0,0.1,0,0.2,0.1c0.1,0,0.1,0.1,0.2,0.1c0.1,0,0.1,0.1,0.1,0.1l0,0.1c0,0,0.1,0.1,0.1,0.1c0,0.1,0.1,0.1,0.1,0.2
	c0,0.1,0,0.1,0,0.2l0,0.1c0,0,0,0.1,0,0.1c0,0,0,0.1,0,0.1c0,0,0,0.1,0,0.1c0,0.1,0,0.1,0,0.1h-0.1c0,0,0,0,0-0.1c0,0,0-0.1,0-0.1
	c0,0,0-0.1,0-0.1c0,0,0-0.1-0.1-0.1c0,0,0-0.1-0.1-0.1c0,0-0.1-0.1-0.1-0.1c0,0-0.1-0.1-0.1-0.1c0,0-0.1-0.1-0.1-0.1c0,0,0,0,0,0
	c0,0-0.1-0.1-0.1-0.1c0,0-0.1-0.1-0.1-0.1c0,0-0.1,0-0.1-0.1c0,0-0.1,0-0.1-0.1S61.3,336.8,61.2,336.7
	C61.3,336.7,61.2,336.7,61.2,336.7L61.2,336.7z M63.9,336C63.9,336,63.9,336,63.9,336c0.1,0,0.1,0,0.2,0.1c0.1,0,0.1,0.1,0.2,0.1
	c0.1,0,0.1,0.1,0.1,0.1c0,0.1,0.1,0.1,0.1,0.2c0,0.1,0.1,0.1,0.1,0.2c0,0.1,0,0.1,0,0.2c0,0,0,0.1,0,0.1c0,0,0,0.1,0,0.1
	c0,0,0,0.1,0,0.1c0,0,0,0.1,0,0.1c0,0.1,0,0.1,0,0.1h-0.1c0,0,0-0.1,0-0.1c0,0,0-0.1,0-0.1c0,0,0-0.1,0-0.1c0,0,0-0.1-0.1-0.1
	c0,0,0-0.1-0.1-0.1c0,0-0.1-0.1-0.1-0.1c0,0-0.1-0.1-0.1-0.1c0,0-0.1-0.1-0.1-0.1c0,0-0.1-0.1-0.1-0.1c0,0-0.1-0.1-0.1-0.1
	c0,0-0.1,0-0.1-0.1s-0.1,0-0.1-0.1c0,0-0.1,0-0.1,0c0,0,0,0,0,0c-0.2,0.1-0.4,0.1-0.7,0.2c0,0-0.1,0-0.1,0h0c0,0,0.1,0,0.1,0
	c0.1,0,0.1,0,0.2,0.1c0.1,0,0.1,0.1,0.2,0.1c0.1,0,0.1,0.1,0.1,0.1c0,0.1,0.1,0.1,0.1,0.2c0,0.1,0.1,0.1,0.1,0.2c0,0.1,0,0.1,0,0.2
	c0,0,0,0.1,0,0.1v0.1c0,0,0,0.1,0,0.1c0,0,0,0.1,0,0.1c0,0,0,0.1,0,0.1h-0.1c0,0,0,0,0-0.1c0,0,0-0.1,0-0.1c0,0,0-0.1,0-0.1
	c0,0,0-0.1-0.1-0.1c0,0,0-0.1-0.1-0.1s-0.1-0.1-0.1-0.1c0,0-0.1-0.1-0.1-0.1c0,0-0.1-0.1-0.1-0.1c0,0-0.1-0.1-0.1-0.1
	c0,0-0.1-0.1-0.1-0.1c0,0-0.1,0-0.1-0.1l-0.1-0.1c0,0-0.1,0-0.1,0l-0.1,0l-1.2-1.4l-0.6-3.3l0.1-0.1l2.3,2.8l0.8,0l2,1.1
	C65.2,335.7,64.5,335.9,63.9,336L63.9,336z M67.5,335.2L67.5,335.2L67.5,335.2C67.5,335.1,67.6,335.1,67.5,335.2
	c0.1-0.1,0.2-0.1,0.2-0.1c0,0,0.1,0,0.1,0h0l0,0c0,0,0,0,0.1,0s0.1,0,0.1,0c0.1,0,0.2,0.1,0.3,0.2c0,0,0.1,0.1,0.1,0.1c0,0,0,0,0,0
	c0,0.1,0.1,0.1,0.1,0.2c0,0.1,0.1,0.1,0.1,0.2c0,0.1,0,0.1,0,0.2c0,0,0,0.1,0,0.1c0,0,0,0.1,0,0.1c0,0,0,0.1,0,0.1c0,0,0,0.1,0,0.1
	c0,0.1,0,0.1,0,0.1h-0.1c0,0,0,0,0-0.1c0,0,0-0.1,0-0.1c0,0,0-0.1,0-0.1c0,0,0-0.1-0.1-0.1c0,0,0-0.1-0.1-0.1c0,0,0-0.1-0.1-0.1
	c0,0-0.1-0.1-0.1-0.1c0,0-0.1-0.1-0.1-0.1c0,0,0,0-0.1,0c0,0,0,0-0.1-0.1c0,0-0.1-0.1-0.1-0.1c0,0-0.1-0.1-0.1-0.1s-0.1,0-0.1-0.1
	S67.6,335.2,67.5,335.2C67.5,335.2,67.5,335.2,67.5,335.2L67.5,335.2z M70.4,337l-0.1,0l-0.1,0c-0.1,0-0.2,0.1-0.3,0.1
	c-0.1,0-0.3,0.1-0.5,0.1c-0.2,0-0.4,0.1-0.6,0.1l-0.1,0c-0.2,0-0.4,0.1-0.5,0.1c-0.2,0-0.4,0.1-0.5,0.1c-0.1,0-0.2,0-0.3,0
	c0,0-0.1,0-0.1,0c-0.1,0-0.1,0-0.1,0h0l0-0.1l0,0c0,0,0.1,0,0.1,0l0.1,0c0.1,0,0.2-0.1,0.3-0.1c0.3-0.1,0.8-0.2,1.1-0.3
	c0.2,0,0.4-0.1,0.6-0.1c0.2,0,0.4-0.1,0.5-0.1c0.1,0,0.2,0,0.3,0l0.1,0c0.1,0,0.1,0,0.1,0h0L70.4,337L70.4,337z M71.7,335.7
	L71.7,335.7l-0.1-0.1l0,0l0.2,0c0,0,0.1,0,0.1,0c0.1,0,0.2-0.1,0.3-0.1c0.4-0.1,1-0.2,1.5-0.3l0,0c0.3,0,0.5-0.1,0.8-0.1
	c0.2,0,0.5-0.1,0.6-0.1l0,0c0.1,0,0.3,0,0.4,0l0.1,0c0.1,0,0.2,0,0.2,0h0l0,0.1l0,0c0,0-0.1,0-0.2,0l-0.1,0c-0.1,0-0.2,0.1-0.4,0.1
	c-0.1,0-0.2,0.1-0.4,0.1c-0.1,0-0.2,0-0.3,0.1c-0.2,0-0.4,0.1-0.7,0.1l-0.1,0c-0.5,0.1-1,0.2-1.5,0.2c-0.1,0-0.3,0-0.4,0
	c0,0-0.1,0-0.1,0C71.7,335.7,71.7,335.7,71.7,335.7L71.7,335.7z M77.7,335.9c-0.1,0-0.2,0-0.2,0c-0.1,0-0.3,0-0.4,0.1
	c-0.1,0-0.2,0-0.3,0c-0.2,0-0.4,0.1-0.7,0.1l-0.5,0.1l-0.1,0c-0.1,0-0.3,0-0.4,0.1l-0.4,0.1c-0.2,0-0.4,0.1-0.7,0.1
	c-0.1,0-0.3,0-0.4,0.1l-0.1,0c-0.2,0-0.3,0-0.5,0.1c-0.2,0-0.3,0-0.5,0.1l-0.2,0l-0.3,0l0-0.1l0.3-0.1c0.1,0,0.1,0,0.2,0
	c0.1,0,0.3-0.1,0.5-0.1c0.1,0,0.2,0,0.2,0l0.2,0l0.2,0c0.1,0,0.2,0,0.3-0.1c0.2,0,0.3-0.1,0.5-0.1L75,336l0.6-0.1l0.5-0.1
	c0.2,0,0.4,0,0.6-0.1l0.3,0c0.2,0,0.4,0,0.6-0.1l0.1,0c0.2,0,0.3,0,0.3,0h0l0,0.1L77.7,335.9z"/>
</svg>
