<?xml version="1.0" encoding="utf-8"?>
<!-- Generator: Adobe Illustrator 19.2.1, SVG Export Plug-In . SVG Version: 6.00 Build 0)  -->
<svg version="1.1" id="layer" xmlns="http://www.w3.org/2000/svg" xmlns:xlink="http://www.w3.org/1999/xlink" x="0px" y="0px"
	 viewBox="0 0 652 652" style="enable-background:new 0 0 652 652;" xml:space="preserve">
<style type="text/css">
	.st0{fill:#009BFF;}
	.st1{fill:#404040;}
</style>
<circle class="st0" cx="134.7" cy="326" r="107.8"/>
<path class="st1" d="M304.1,301c3.4,0.2,6.7-1.1,9.1-3.5c2.2-2.8,3.3-6.4,2.9-10v-42.9h19.5v42.9c0.5,8.2-2.6,16.2-8.4,21.9
	c-6.4,5.4-14.7,8.2-23.1,7.7c-8.4,0.5-16.7-2.3-23.1-7.7c-6-5.7-9.3-13.7-8.9-21.9v-42.9h19.5v42.9c-0.2,3.6,0.9,7.1,3.2,9.9
	C297.2,299.9,300.6,301.2,304.1,301z M374.4,317.2c-5.6,0-11.2-1-16.5-3c-5.1-1.9-9.9-4.8-13.9-8.5l9.4-11.9
	c2.8,2.5,5.9,4.5,9.4,5.9c3.7,1.5,7.6,2.2,11.5,2.2c2.3,0.1,4.6-0.4,6.6-1.5c1.5-0.9,2.5-2.6,2.4-4.4c0-1.9-1.1-3.7-2.8-4.5
	c-3.1-1.8-6.5-3.1-10-4l-4.4-1.2c-5.5-1.2-10.5-3.8-14.6-7.7c-3.4-3.5-5.2-8.3-5-13.2c0-4.1,1.3-8.2,3.7-11.5
	c2.5-3.4,5.9-6.1,9.9-7.7c4.6-1.9,9.6-2.9,14.5-2.8c5.3,0,10.5,1,15.4,3c4.8,1.9,9.3,4.5,13.2,7.9l-9.7,12.2
	c-2.7-2.3-5.7-4.2-8.9-5.6c-3.1-1.5-6.6-2.4-10.1-2.4c-2.2-0.1-4.5,0.3-6.5,1.4c-1.6,0.8-2.6,2.6-2.5,4.4c0.1,1.7,0.9,3.3,2.4,4.3
	c2.5,1.6,5.4,2.8,8.3,3.4l5.3,1.5c6.1,1.3,11.8,4.3,16.2,8.6c3.1,3.5,4.8,8,4.8,12.7c0.1,4.2-1.2,8.4-3.5,11.9
	c-2.5,3.4-6,6.1-9.9,7.7C384.5,316.4,379.5,317.3,374.4,317.2z M461.6,315.8l-4.5-12.9h-26.6l-4.5,13.3h-19.2l26.1-71.2h22.6
	l25.7,70.8H461.6z M434.9,288.1h16.9l-8-24.9L434.9,288.1z M293.2,407.1v-55.5h-21.2v-15.4h61.6v15.4h-20.9v55.5L293.2,407.1z
	 M374.6,408.4c-6.6,0.1-13.2-1.5-19-4.7c-5.4-3.1-9.9-7.6-13-13.1c-3.3-5.8-5-12.4-4.8-19.1c-0.1-5,0.8-10.1,2.6-14.8
	c1.7-4.4,4.4-8.4,7.7-11.7c3.3-3.3,7.3-5.9,11.7-7.7c9.5-3.6,20-3.6,29.5,0c4.4,1.8,8.3,4.4,11.7,7.7c3.3,3.3,6,7.3,7.7,11.7
	c2,4.7,3.1,9.7,3.2,14.8c0.1,6.7-1.5,13.3-4.8,19.1c-3.1,5.5-7.7,9.9-13.2,13C388,406.9,381.3,408.6,374.6,408.4z M374.6,392.4
	c3.2,0.1,6.3-0.8,8.9-2.6c2.6-1.8,4.7-4.4,6-7.3c1.5-3.4,2.3-7.1,2.2-10.9c0.1-3.7-0.7-7.4-2.2-10.9c-1.3-3.1-3.3-5.7-6-7.7
	c-5.4-3.6-12.5-3.6-17.9,0c-2.7,2-4.7,4.6-6,7.7c-1.5,3.4-2.3,7.1-2.2,10.9c-0.1,3.7,0.7,7.4,2.2,10.9c1.3,2.9,3.4,5.5,6,7.3
	C368.2,391.5,371.4,392.4,374.6,392.4L374.6,392.4z M422.7,407.1v-71.2h28.1c6.5-0.1,13,1.4,18.7,4.5c5.3,2.9,9.7,7.3,12.7,12.5
	c6.1,11.6,6.1,25.4,0,36.9c-3,5.3-7.4,9.6-12.7,12.5c-5.7,3.1-12.2,4.7-18.7,4.5L422.7,407.1z M441.9,391.7h8.9
	c4.7,0.2,9.2-1.9,12.1-5.5c3.1-4.2,4.7-9.4,4.5-14.6c0.2-5.2-1.4-10.4-4.5-14.6c-2.9-3.7-7.4-5.7-12.1-5.5h-8.9V391.7z M544.2,407.1
	l-4.5-13.3h-26.7l-4.5,13.3h-19.2l26.1-71.2h22.6l26.1,71.2H544.2z M518,379.3h17l-8.4-24.9L518,379.3z M601.7,381.4v25.6h-19.8
	v-25.6l-25.2-45.6h22l13.2,28.6l13.1-28.2h22L601.7,381.4z"/>
</svg>
