<svg id="Layer_1" data-name="Layer 1" xmlns="http://www.w3.org/2000/svg" viewBox="0 0 512 512"><defs><style>.cls-1{fill:#eabd2f;}</style></defs><path class="cls-1" d="M133,112.66c-1.05,1.38-1.61,3,.2,4.28,3.16,2.3,13.23.21,15.15-3.56a276.14,276.14,0,0,1,18.47-30.83C153.11,90,142.26,100.47,133,112.66Z"/><path class="cls-1" d="M202.56,139.11a426.37,426.37,0,0,0-3.33,43.72c-.15,4.8,1.53,7,6.45,6.93,10.61-.12,21.23,0,31.84,0v0c10.38,0,20.77-.25,31.14.09,6.64.22,8.89-2.75,8.48-8.92-.92-14.12-1.61-28.25-3.64-42.28-.77-5.26-3.2-7.21-8.41-7.16-17.92.17-35.85.2-53.78,0C205.69,131.39,203.3,133.65,202.56,139.11Z"/><path class="cls-1" d="M162.13,131.47c-5.08-.2-7.71,1.93-9.18,6.72a204.38,204.38,0,0,0-8,43.64c-.44,5.25,1.37,8.11,7,7.92,4.47-.14,8.94,0,13.41,0v-.05h14.12c4,0,5.91-2,6.08-6a454,454,0,0,1,3.72-45.7c.68-4.72-1.56-6.42-6-6.38C176.25,131.61,169.18,131.75,162.13,131.47Z"/><path class="cls-1" d="M338.64,117.52c1.79-.25,4,.46,5.09-1.59s-.7-3.56-1.82-5a132,132,0,0,0-31.67-29.08c-.83-.56-1.62-1.78-2.66-.55-.17.2.77,1.34,1.2,2h0c6.67,8.31,12.8,17,17.09,26.79C328.48,116.12,332.48,118.37,338.64,117.52Z"/><path class="cls-1" d="M224.32,70.35C215.78,82.77,211.47,97,207.9,111.43c-1.12,4.54,1.17,6,5.23,6h49.42c4.28,0,6.94-1.38,5.65-6.35-3.75-14.39-7.86-28.67-16.57-41C242.66,57.43,233.15,57.49,224.32,70.35Z"/><path class="cls-1" d="M238.24,275.85v0c-7.76,0-15.53.05-23.29,0-4.38,0-6.13,1.82-4.83,6.14,3.62,12,7.52,23.84,15.2,33.95,8.34,11,16.9,11.14,25.22.31,7.87-10.25,12.09-22.25,15.54-34.54,1.1-3.94-.51-5.83-4.54-5.82Z"/><path class="cls-1" d="M272.08,255.73q3.44-22.39,4.72-45c.29-5.28-1.85-7.25-6.95-7.18-10.61.14-21.22,0-31.84,0-10.37,0-20.75.15-31.13-.07-5.68-.12-8.16,1.82-7.71,7.87,1.08,14.83,2.74,29.57,4.77,44.29.68,4.88,3,7.07,7.85,7.06q26.18-.11,52.35,0C269,262.75,271.33,260.58,272.08,255.73Z"/><path class="cls-1" d="M290,169.86c1.55,19.91,1.47,19.91,21.16,19.85,4.47,0,8.94-.07,13.41,0,4.72.09,6.93-2,6.63-6.83a185,185,0,0,0-8.41-45.68c-1.38-4.3-4.11-5.83-8.45-5.72-6.82.18-13.65.26-20.47,0-6.18-.26-7.61,2.41-6.83,8.19C288.43,149.69,289.26,159.78,290,169.86Z"/><path class="cls-1" d="M307.51,117.53c6,.11,6.17-2.61,3.7-7a119.9,119.9,0,0,0-19.35-26C285.23,77.9,278,72,268.27,68.94,274.93,83.46,279,98.59,283,113.76c.81,3.07,3.39,3.66,6.12,3.68C295.28,117.5,301.4,117.42,307.51,117.53Z"/><path class="cls-1" d="M201.13,71.21a98.49,98.49,0,0,0-31.91,32.39c-2.4,3.86-7.51,8.06-5.17,12.29,2.14,3.88,8.28.92,11.91,1.65h5.61c10.83-.05,10.83-.05,13.5-10.77A193.84,193.84,0,0,1,205.7,75.39c.79-1.8,3-4,1.06-5.71S202.84,70.15,201.13,71.21Z"/><path class="cls-1" d="M319.57,257.4c5.37-15.18,9.48-30.63,10.95-46.73.5-5.42-1.75-7.22-6.82-7.13-8.49.16-17,.25-25.48,0-5.68-.19-8.09,2.2-8.46,7.76q-1.22,17.64-2.95,35.25c-1.7,17.17-4.68,16.2,14.68,16.14h10.62A7.19,7.19,0,0,0,319.57,257.4Z"/><path class="cls-1" d="M118.29,137a129.77,129.77,0,0,0-11.45,39.92c-1.53,11.92-.7,12.85,12.21,12.87,4.1-1.21,11.9,3.12,12.41-6.23a212.33,212.33,0,0,1,7.59-45.91c.51-1.81,1-3.7-.86-5.19C134.08,129.14,120.62,132.09,118.29,137Z"/><path class="cls-1" d="M353.75,256.54a128.06,128.06,0,0,0,14.19-39.78c2.43-12.7,1.94-13.25-12-13.2-3.52,1.41-10.67-2.76-11.84,6-2.1,15.68-4.83,31.22-9.83,46.28-.67,2-1.2,4.13,1.31,5.56C340.43,264.09,351,261.45,353.75,256.54Z"/><path class="cls-1" d="M307.84,279.81c1.32-2.22.12-3.76-2.27-3.8-6.8-.09-13.61,0-20.41.11a4.32,4.32,0,0,0-4.1,3.36,299,299,0,0,1-13.17,37.12C285.67,308.94,298.24,296,307.84,279.81Z"/><path class="cls-1" d="M369.27,176.43a134.24,134.24,0,0,0-8.93-34.09c-4.58-11.06-4.65-11.12-16.6-10.81-7.58.19-8.14.91-6,8.47a180.53,180.53,0,0,1,6.5,37.53c.74,12.25.64,12.26,13.25,12.24S370.9,188.75,369.27,176.43Z"/><path class="cls-1" d="M336.67,280.65c1.12-1.35,2.82-3.72-.29-4.35-4-.83-8.87-1.94-11.76,2.19-5.06,7.26-9.58,14.9-14.32,22.38l1.47,1.22C320.89,295.93,329.56,289.23,336.67,280.65Z"/><path class="cls-1" d="M121.38,254.37c2.79,5.47,6.26,8.76,11.79,7.62,10.54.06,10.83-.37,7.73-9.4a174,174,0,0,1-7.68-33c-2.39-17.3,1.12-15.85-18.72-16.1-6.68-.08-8,2.84-7,8.76A142.84,142.84,0,0,0,121.38,254.37Z"/><path class="cls-1" d="M165.93,300.69c-4.12-6.44-8.63-12.68-12.24-19.4-2.95-5.48-7.38-5.82-12.49-5.41-3,.24-3.9,1.65-1.79,4C146.87,288.3,155,296,165.93,300.69Z"/><path class="cls-1" d="M174.72,262c3.29.08,6.6-.1,9.89,0,5,.09,6.52-2.18,5.85-7.09q-2.16-15.74-3.58-31.57c-2.08-23.24,1.27-19.27-19.67-19.71-6,0-10.46.18-14.93,0-5.39-.27-7,2.22-6.56,7.3a157.31,157.31,0,0,0,7,34.56C159.21,265.52,157.54,261.53,174.72,262Z"/><path class="cls-1" d="M202.53,314.48c1.36.8,3,2.14,4.47.56,1.11-1.18.08-2.7-.5-3.92-4.62-9.61-7.85-19.72-10.72-29.94-1.07-3.83-3.42-5.39-7.2-5.33-2.6,0-5.19,0-7.79,0v0c-2.83,0-5.66,0-8.49,0-4.49-.05-5.59,1.73-3.09,5.56C178,294.77,188.62,306.28,202.53,314.48Z"/><path class="cls-1" d="M360.77,339.91a190.21,190.21,0,0,0,69.47-147.53c0-105.48-85.82-191.29-191.3-191.29S47.64,86.9,47.64,192.38a191,191,0,0,0,10.57,62.85,23.45,23.45,0,0,0,44.31-15.4,144.07,144.07,0,0,1-8-47.45C94.55,112.77,159.32,48,238.94,48s144.39,64.77,144.39,144.38a143.78,143.78,0,0,1-67.67,122.35,23.45,23.45,0,0,0-7.56,32,24.11,24.11,0,0,0,1.55,2.92l51.79,81.6a24.19,24.19,0,1,0,40.84-25.92Z"/><circle class="cls-1" cx="423.11" cy="480.98" r="29.89"/></svg>